<svg width="9529" height="2510" viewBox="0 0 9529 2510" fill="none" xmlns="http://www.w3.org/2000/svg">
<mask id="path-1-inside-1" fill="white">
<path fill-rule="evenodd" clip-rule="evenodd" d="M1883.24 850.189C1896.99 869.053 1904.92 891.527 1906.06 914.843L1920.02 1201H1743.33C1725.23 1120.79 1653.54 1060.88 1567.85 1060.88C1475.55 1060.88 1399.49 1130.4 1389.16 1219.94H583.924C573.601 1130.4 497.535 1060.88 405.233 1060.88C312.93 1060.88 236.865 1130.4 226.541 1219.94H96.5887V1130.94H0.0194092V1019.22H1181.58H1227.02V492.826H1570.94C1603.5 492.826 1634.11 508.392 1653.3 534.711L1883.24 850.189ZM1558.63 530.135C1586.67 530.135 1613 543.595 1629.43 566.321L1815.37 823.597H1293.96V530.135H1558.63Z"/>
</mask>
<path fill-rule="evenodd" clip-rule="evenodd" d="M1883.24 850.189C1896.99 869.053 1904.92 891.527 1906.06 914.843L1920.02 1201H1743.33C1725.23 1120.79 1653.54 1060.88 1567.85 1060.88C1475.55 1060.88 1399.49 1130.4 1389.16 1219.94H583.924C573.601 1130.4 497.535 1060.88 405.233 1060.88C312.93 1060.88 236.865 1130.4 226.541 1219.94H96.5887V1130.94H0.0194092V1019.22H1181.58H1227.02V492.826H1570.94C1603.5 492.826 1634.11 508.392 1653.3 534.711L1883.24 850.189ZM1558.63 530.135C1586.67 530.135 1613 543.595 1629.43 566.321L1815.37 823.597H1293.96V530.135H1558.63Z" fill="#FFF3DC"/>
<path d="M1906.06 914.843L1902.43 915.02L1902.43 915.02L1906.06 914.843ZM1883.24 850.189L1886.18 848.045L1886.18 848.045L1883.24 850.189ZM1920.02 1201L1923.65 1200.83L1923.84 1204.64H1920.02V1201ZM1743.33 1201V1204.64H1740.42L1739.78 1201.8L1743.33 1201ZM1389.16 1219.94L1392.78 1220.35L1392.41 1223.58H1389.16V1219.94ZM583.924 1219.94V1223.58H580.68L580.308 1220.35L583.924 1219.94ZM226.541 1219.94L230.157 1220.35L229.786 1223.58H226.541V1219.94ZM96.5887 1219.94V1223.58H92.9489V1219.94H96.5887ZM96.5887 1130.94V1127.3H100.229V1130.94H96.5887ZM0.0194092 1130.94V1134.58H-3.62043V1130.94H0.0194092ZM0.0194092 1019.22H-3.62043V1015.58H0.0194092V1019.22ZM1227.02 1019.22H1230.66V1022.86H1227.02V1019.22ZM1227.02 492.826H1223.38V489.186H1227.02V492.826ZM1653.3 534.711L1650.35 536.855L1650.35 536.855L1653.3 534.711ZM1629.43 566.321L1632.38 564.189L1632.38 564.189L1629.43 566.321ZM1815.37 823.597L1818.32 821.465L1822.49 827.237H1815.37V823.597ZM1293.96 823.597V827.237H1290.32V823.597H1293.96ZM1293.96 530.135H1290.32V526.495H1293.96V530.135ZM1902.43 915.02C1901.32 892.414 1893.63 870.623 1880.3 852.333L1886.18 848.045C1900.35 867.483 1908.53 890.641 1909.7 914.666L1902.43 915.02ZM1916.38 1201.18L1902.43 915.02L1909.7 914.666L1923.65 1200.83L1916.38 1201.18ZM1743.33 1197.36H1920.02V1204.64H1743.33V1197.36ZM1567.85 1057.24C1655.28 1057.24 1728.41 1118.36 1746.88 1200.2L1739.78 1201.8C1722.04 1123.21 1651.8 1064.52 1567.85 1064.52V1057.24ZM1385.55 1219.52C1396.08 1128.17 1473.68 1057.24 1567.85 1057.24V1064.52C1477.42 1064.52 1402.89 1132.63 1392.78 1220.35L1385.55 1219.52ZM583.924 1216.3H1389.16V1223.58H583.924V1216.3ZM405.233 1057.24C499.406 1057.24 577.007 1128.17 587.54 1219.52L580.308 1220.35C570.194 1132.63 495.665 1064.52 405.233 1064.52V1057.24ZM222.925 1219.52C233.458 1128.17 311.06 1057.24 405.233 1057.24V1064.52C314.8 1064.52 240.271 1132.63 230.157 1220.35L222.925 1219.52ZM96.5887 1216.3H226.541V1223.58H96.5887V1216.3ZM100.229 1130.94V1219.94H92.9489V1130.94H100.229ZM0.0194092 1127.3H96.5887V1134.58H0.0194092V1127.3ZM3.65925 1019.22V1130.94H-3.62043V1019.22H3.65925ZM1181.58 1022.86H0.0194092V1015.58H1181.58V1022.86ZM1227.02 1022.86H1181.58V1015.58H1227.02V1022.86ZM1230.66 492.826V1019.22H1223.38V492.826H1230.66ZM1570.94 496.466H1227.02V489.186H1570.94V496.466ZM1650.35 536.855C1631.86 511.476 1602.34 496.466 1570.94 496.466V489.186C1604.67 489.186 1636.37 505.308 1656.24 532.567L1650.35 536.855ZM1880.3 852.333L1650.35 536.855L1656.24 532.567L1886.18 848.045L1880.3 852.333ZM1626.48 568.453C1610.74 546.674 1585.5 533.775 1558.63 533.775V526.495C1587.83 526.495 1615.27 540.516 1632.38 564.189L1626.48 568.453ZM1812.42 825.729L1626.48 568.453L1632.38 564.189L1818.32 821.465L1812.42 825.729ZM1293.96 819.957H1815.37V827.237H1293.96V819.957ZM1297.6 530.135V823.597H1290.32V530.135H1297.6ZM1558.63 533.775H1293.96V526.495H1558.63V533.775Z" fill="black" mask="url(#path-1-inside-1)"/>
<path d="M1933.72 1080.42L1852.22 1080.42V1199.79H1933.72L1933.72 1080.42Z" fill="#B8B8B8" stroke="black" stroke-width="1.81992"/>
<path fill-rule="evenodd" clip-rule="evenodd" d="M1567.91 1404.61C1477.45 1404.61 1404.12 1331.27 1404.12 1240.81C1404.12 1150.35 1477.45 1077.02 1567.91 1077.02C1658.37 1077.02 1731.71 1150.35 1731.71 1240.81C1731.71 1331.27 1658.37 1404.61 1567.91 1404.61ZM1567.91 1350.92C1507.1 1350.92 1457.81 1301.62 1457.81 1240.81C1457.81 1180 1507.1 1130.71 1567.91 1130.71C1628.72 1130.71 1678.02 1180 1678.02 1240.81C1678.02 1301.62 1628.72 1350.92 1567.91 1350.92Z" fill="#333333"/>
<path fill-rule="evenodd" clip-rule="evenodd" d="M405.387 1406.43C314.927 1406.43 241.594 1333.09 241.594 1242.63C241.594 1152.17 314.927 1078.84 405.387 1078.84C495.847 1078.84 569.18 1152.17 569.18 1242.63C569.18 1333.09 495.847 1406.43 405.387 1406.43ZM405.387 1352.74C344.577 1352.74 295.282 1303.44 295.282 1242.63C295.282 1181.82 344.577 1132.53 405.387 1132.53C466.196 1132.53 515.492 1181.82 515.492 1242.63C515.492 1303.44 466.196 1352.74 405.387 1352.74Z" fill="#333333"/>
<circle r="110.105" transform="matrix(-1 0 0 1 1567.91 1240.81)" fill="#B8B8B8"/>
<circle r="110.105" transform="matrix(-1 0 0 1 405.442 1242.63)" fill="#B8B8B8"/>
<path d="M1226.17 300.825H2.276C2.02466 300.825 1.82092 301.029 1.82092 301.28V1018.78H1226.63V301.28C1226.63 301.029 1226.42 300.825 1226.17 300.825Z" fill="#2F80ED" stroke="black" stroke-width="3.63984"/>
<g filter="url(#filter0_d)">
<path d="M210 501.347L687.033 591.128V955L210 821.623V501.347Z" fill="#D3B875"/>
<path d="M687.033 591.128L965.876 468.542V807.38L687.033 955V591.128Z" fill="#B78C59"/>
<path d="M713.59 831.189C713.59 828.405 715.24 825.885 717.793 824.772L778.538 798.291C779.915 797.69 781.456 798.7 781.456 800.202V874.565C781.456 877.167 780.014 879.554 777.71 880.763L716.644 912.821C715.256 913.55 713.59 912.543 713.59 910.975V831.189Z" fill="white"/>
<path d="M493.269 408.544L965.875 468.542L687.033 591.128L210 501.347L493.269 408.544Z" fill="#F2CF8B"/>
<path d="M391.961 535.591L459.827 548.395V891.549L391.961 872.557V535.591Z" fill="#6F5D3A" fill-opacity="0.62"/>
<path d="M693.918 434.011L747.522 440.486L459.827 548.396L391.961 535.594L693.918 434.011Z" fill="#6F5D3A" fill-opacity="0.62"/>
<path d="M353.602 454.296L394.42 440.915L855.715 516.884L800.635 541.056L353.602 454.296Z" fill="#6F5D3A" fill-opacity="0.62"/>
<path d="M727.123 837.999L772.997 818.074M727.123 845.725L772.997 825.393M727.123 854.264L772.997 833.932M727.123 862.803L772.997 842.065M754.838 862.803L772.997 854.264M754.838 870.123L772.997 861.177M754.838 877.849L772.997 868.496" stroke="#585050" stroke-opacity="0.7" stroke-width="2.78023"/>
<path fill-rule="evenodd" clip-rule="evenodd" d="M855.715 516.885L800.635 541.057L800.635 637.972L809.487 649.398V639.47L816.864 645.082L819.323 639.47V635.585C819.323 632.132 822.273 625.226 823.749 622.205L826.208 635.585V645.082C828.011 640.621 831.912 632.478 833.093 635.585C834.273 638.693 835.552 643.211 836.043 645.082L843.42 639.47V622.205L848.83 606.234L855.715 629.5L855.715 516.885Z" fill="#6F5D3A" fill-opacity="0.62"/>
</g>
<g filter="url(#filter1_d)">
<path d="M2624.73 753.679C2624.73 820.296 2601.93 871.609 2556.31 907.619C2511 943.328 2446.04 961.183 2361.41 961.183H2283.99V1220H2207.47V561.929H2378.07C2542.51 561.929 2624.73 625.846 2624.73 753.679ZM2283.99 895.466H2352.86C2420.68 895.466 2469.74 884.513 2500.05 862.607C2530.36 840.701 2545.51 805.592 2545.51 757.28C2545.51 713.768 2531.26 681.36 2502.75 660.054C2474.24 638.749 2429.83 628.096 2369.52 628.096H2283.99V895.466ZM3055.04 1220L3040.19 1149.78H3036.59C3011.98 1180.69 2987.38 1201.7 2962.77 1212.8C2938.46 1223.6 2908.01 1229 2871.4 1229C2822.48 1229 2784.07 1216.4 2756.17 1191.19C2728.56 1165.99 2714.76 1130.13 2714.76 1083.61C2714.76 983.989 2794.43 931.775 2953.77 926.974L3037.49 924.273V893.665C3037.49 854.955 3029.09 826.448 3012.28 808.143C2995.78 789.538 2969.22 780.236 2932.61 780.236C2891.5 780.236 2844.99 792.839 2793.08 818.045L2770.12 760.881C2794.43 747.677 2820.98 737.325 2849.79 729.823C2878.9 722.321 2908.01 718.57 2937.11 718.57C2995.93 718.57 3039.44 731.623 3067.65 757.73C3096.15 783.837 3110.41 825.697 3110.41 883.312V1220H3055.04ZM2886.25 1167.34C2932.76 1167.34 2969.22 1154.58 2995.63 1129.08C3022.34 1103.57 3035.69 1067.86 3035.69 1021.95V977.387L2960.97 980.538C2901.55 982.638 2858.64 991.941 2832.24 1008.44C2806.13 1024.65 2793.08 1050.01 2793.08 1084.51C2793.08 1111.52 2801.18 1132.08 2817.38 1146.18C2833.89 1160.28 2856.84 1167.34 2886.25 1167.34ZM3461.95 1229C3390.53 1229 3335.17 1207.1 3295.86 1163.29C3256.85 1119.17 3237.34 1056.91 3237.34 976.487C3237.34 893.965 3257.15 830.199 3296.76 785.187C3336.67 740.175 3393.38 717.669 3466.9 717.669C3490.61 717.669 3514.31 720.22 3538.02 725.321C3561.73 730.423 3580.33 736.424 3593.83 743.326L3570.88 806.793C3554.37 800.191 3536.37 794.789 3516.86 790.588C3497.36 786.087 3480.1 783.837 3465.1 783.837C3364.87 783.837 3314.76 847.753 3314.76 975.586C3314.76 1036.2 3326.91 1082.71 3351.22 1115.12C3375.83 1147.53 3412.14 1163.74 3460.15 1163.74C3501.26 1163.74 3543.42 1154.88 3586.63 1137.18V1203.35C3553.62 1220.45 3512.06 1229 3461.95 1229ZM3777.93 967.484C3790.84 949.18 3810.49 925.173 3836.9 895.466L3996.24 726.672H4084.91L3885.06 936.876L4098.87 1220H4008.39L3834.2 986.839L3777.93 1035.45V1220H3704.11V519.618H3777.93V890.964C3777.93 907.469 3776.73 932.975 3774.33 967.484H3777.93ZM4616.95 753.679C4616.95 820.296 4594.14 871.609 4548.53 907.619C4503.22 943.328 4438.25 961.183 4353.63 961.183H4276.21V1220H4199.69V561.929H4370.29C4534.73 561.929 4616.95 625.846 4616.95 753.679ZM4276.21 895.466H4345.08C4412.9 895.466 4461.96 884.513 4492.27 862.607C4522.58 840.701 4537.73 805.592 4537.73 757.28C4537.73 713.768 4523.48 681.36 4494.97 660.054C4466.46 638.749 4422.05 628.096 4361.73 628.096H4276.21V895.466ZM4818.6 1220H4743.88V726.672H4818.6V1220ZM4737.58 592.987C4737.58 575.883 4741.78 563.429 4750.18 555.627C4758.59 547.525 4769.09 543.474 4781.69 543.474C4793.7 543.474 4804.05 547.525 4812.75 555.627C4821.45 563.729 4825.8 576.183 4825.8 592.987C4825.8 609.791 4821.45 622.395 4812.75 630.797C4804.05 638.899 4793.7 642.95 4781.69 642.95C4769.09 642.95 4758.59 638.899 4750.18 630.797C4741.78 622.395 4737.58 609.791 4737.58 592.987ZM5174.19 1229C5102.78 1229 5047.41 1207.1 5008.1 1163.29C4969.09 1119.17 4949.59 1056.91 4949.59 976.487C4949.59 893.965 4969.39 830.199 5009 785.187C5048.91 740.175 5105.63 717.669 5179.15 717.669C5202.85 717.669 5226.56 720.22 5250.26 725.321C5273.97 730.423 5292.58 736.424 5306.08 743.326L5283.12 806.793C5266.62 800.191 5248.61 794.789 5229.11 790.588C5209.6 786.087 5192.35 783.837 5177.35 783.837C5077.12 783.837 5027.01 847.753 5027.01 975.586C5027.01 1036.2 5039.16 1082.71 5063.47 1115.12C5088.07 1147.53 5124.38 1163.74 5172.39 1163.74C5213.51 1163.74 5255.67 1154.88 5298.88 1137.18V1203.35C5265.87 1220.45 5224.31 1229 5174.19 1229ZM5490.18 967.484C5503.08 949.18 5522.74 925.173 5549.14 895.466L5708.48 726.672H5797.16L5597.3 936.876L5811.11 1220H5720.64L5546.44 986.839L5490.18 1035.45V1220H5416.36V519.618H5490.18V890.964C5490.18 907.469 5488.98 932.975 5486.58 967.484H5490.18ZM5970.9 726.672V1046.7C5970.9 1086.92 5980.05 1116.92 5998.36 1136.73C6016.66 1156.53 6045.32 1166.44 6084.33 1166.44C6135.94 1166.44 6173.6 1152.33 6197.31 1124.13C6221.32 1095.92 6233.32 1049.86 6233.32 985.939V726.672H6308.04V1220H6246.37L6235.57 1153.83H6231.52C6216.22 1178.14 6194.91 1196.74 6167.6 1209.65C6140.6 1222.55 6109.69 1229 6074.88 1229C6014.86 1229 5969.85 1214.75 5939.84 1186.24C5910.14 1157.73 5895.28 1112.12 5895.28 1049.41V726.672H5970.9ZM6696.49 1229C6664.38 1229 6634.97 1223.15 6608.27 1211.45C6581.86 1199.44 6559.66 1181.14 6541.65 1156.53H6536.25C6539.85 1185.34 6541.65 1212.65 6541.65 1238.45V1441.46H6466.93V726.672H6527.7L6538.05 794.189H6541.65C6560.86 767.182 6583.21 747.677 6608.72 735.674C6634.22 723.671 6663.48 717.669 6696.49 717.669C6761.91 717.669 6812.32 740.025 6847.73 784.737C6883.44 829.448 6901.29 892.165 6901.29 972.886C6901.29 1053.91 6883.14 1116.92 6846.83 1161.93C6810.82 1206.65 6760.71 1229 6696.49 1229ZM6685.69 781.136C6635.27 781.136 6598.82 795.09 6576.31 822.997C6553.8 850.904 6542.25 895.316 6541.65 956.231V972.886C6541.65 1042.2 6553.2 1091.87 6576.31 1121.87C6599.42 1151.58 6636.48 1166.44 6687.49 1166.44C6730.1 1166.44 6763.41 1149.18 6787.41 1114.67C6811.72 1080.16 6823.87 1032.6 6823.87 971.986C6823.87 910.47 6811.72 863.357 6787.41 830.649C6763.41 797.64 6729.5 781.136 6685.69 781.136ZM7021.47 1172.29C7021.47 1152.18 7025.98 1137.03 7034.98 1126.83C7044.28 1116.32 7057.48 1111.07 7074.59 1111.07C7091.99 1111.07 7105.5 1116.32 7115.1 1126.83C7125 1137.03 7129.95 1152.18 7129.95 1172.29C7129.95 1191.79 7125 1206.8 7115.1 1217.3C7105.2 1227.8 7091.69 1233.05 7074.59 1233.05C7059.28 1233.05 7046.53 1228.4 7036.33 1219.1C7026.43 1209.5 7021.47 1193.89 7021.47 1172.29ZM7475.19 1229C7403.77 1229 7348.41 1207.1 7309.1 1163.29C7270.09 1119.17 7250.58 1056.91 7250.58 976.487C7250.58 893.965 7270.39 830.199 7310 785.187C7349.91 740.175 7406.63 717.669 7480.14 717.669C7503.85 717.669 7527.56 720.22 7551.26 725.321C7574.97 730.423 7593.57 736.424 7607.08 743.326L7584.12 806.793C7567.62 800.191 7549.61 794.789 7530.11 790.588C7510.6 786.087 7493.35 783.837 7478.34 783.837C7378.12 783.837 7328 847.753 7328 975.586C7328 1036.2 7340.16 1082.71 7364.46 1115.12C7389.07 1147.53 7425.38 1163.74 7473.39 1163.74C7514.5 1163.74 7556.66 1154.88 7599.88 1137.18V1203.35C7566.87 1220.45 7525.31 1229 7475.19 1229ZM8143.17 972.886C8143.17 1053.31 8122.91 1116.17 8082.4 1161.48C8041.89 1206.5 7985.93 1229 7914.51 1229C7870.4 1229 7831.24 1218.65 7797.03 1197.94C7762.82 1177.24 7736.41 1147.53 7717.81 1108.82C7699.2 1070.11 7689.9 1024.8 7689.9 972.886C7689.9 892.465 7710 829.899 7750.21 785.187C7790.42 740.175 7846.24 717.669 7917.66 717.669C7986.68 717.669 8041.44 740.625 8081.95 786.537C8122.76 832.449 8143.17 894.565 8143.17 972.886ZM7767.32 972.886C7767.32 1035.9 7779.92 1083.91 7805.13 1116.92C7830.34 1149.93 7867.39 1166.44 7916.31 1166.44C7965.22 1166.44 8002.28 1150.08 8027.49 1117.37C8052.99 1084.36 8065.75 1036.2 8065.75 972.886C8065.75 910.169 8052.99 862.607 8027.49 830.199C8002.28 797.49 7964.92 781.136 7915.41 781.136C7866.49 781.136 7829.59 797.19 7804.68 829.298C7779.77 861.407 7767.32 909.269 7767.32 972.886ZM8903.41 1220V899.067C8903.41 859.756 8895.01 830.349 8878.21 810.844C8861.4 791.038 8835.3 781.136 8799.89 781.136C8753.38 781.136 8719.02 794.489 8696.81 821.196C8674.6 847.903 8663.5 889.014 8663.5 944.528V1220H8588.78V899.067C8588.78 859.756 8580.38 830.349 8563.58 810.844C8546.77 791.038 8520.51 781.136 8484.81 781.136C8437.99 781.136 8403.63 795.24 8381.73 823.447C8360.12 851.354 8349.32 897.266 8349.32 961.183V1220H8274.6V726.672H8335.37L8347.52 794.189H8351.12C8365.22 770.183 8385.03 751.428 8410.54 737.925C8436.34 724.421 8465.15 717.669 8496.96 717.669C8574.08 717.669 8624.49 745.577 8648.2 801.391H8651.8C8666.5 775.584 8687.81 755.179 8715.72 740.175C8743.62 725.171 8775.43 717.669 8811.14 717.669C8866.95 717.669 8908.67 732.073 8936.27 760.881C8964.18 789.388 8978.13 835.15 8978.13 898.166V1220H8903.41Z" fill="#2F80ED"/>
</g>
<defs>
<filter id="filter0_d" x="207.22" y="294" width="761.436" height="666.561" filterUnits="userSpaceOnUse" color-interpolation-filters="sRGB">
<feFlood flood-opacity="0" result="BackgroundImageFix"/>
<feColorMatrix in="SourceAlpha" type="matrix" values="0 0 0 0 0 0 0 0 0 0 0 0 0 0 0 0 0 0 127 0"/>
<feOffset dy="2.78023"/>
<feGaussianBlur stdDeviation="1.39012"/>
<feColorMatrix type="matrix" values="0 0 0 0 0 0 0 0 0 0 0 0 0 0 0 0 0 0 0.25 0"/>
<feBlend mode="normal" in2="BackgroundImageFix" result="effect1_dropShadow"/>
<feBlend mode="normal" in="SourceGraphic" in2="effect1_dropShadow" result="shape"/>
</filter>
<filter id="filter1_d" x="2207.47" y="519.618" width="6802.51" height="953.685" filterUnits="userSpaceOnUse" color-interpolation-filters="sRGB">
<feFlood flood-opacity="0" result="BackgroundImageFix"/>
<feColorMatrix in="SourceAlpha" type="matrix" values="0 0 0 0 0 0 0 0 0 0 0 0 0 0 0 0 0 0 127 0"/>
<feOffset dx="25.1411" dy="25.1411"/>
<feGaussianBlur stdDeviation="3.35214"/>
<feColorMatrix type="matrix" values="0 0 0 0 0 0 0 0 0 0 0 0 0 0 0 0 0 0 0.17 0"/>
<feBlend mode="normal" in2="BackgroundImageFix" result="effect1_dropShadow"/>
<feBlend mode="normal" in="SourceGraphic" in2="effect1_dropShadow" result="shape"/>
</filter>
</defs>
</svg>
